<?xml version="1.0" encoding="UTF-8" standalone="no"?>
<svg
   xmlns:dc="http://purl.org/dc/elements/1.1/"
   xmlns:cc="http://creativecommons.org/ns#"
   xmlns:rdf="http://www.w3.org/1999/02/22-rdf-syntax-ns#"
   xmlns:svg="http://www.w3.org/2000/svg"
   xmlns="http://www.w3.org/2000/svg"
   xmlns:sodipodi="http://sodipodi.sourceforge.net/DTD/sodipodi-0.dtd"
   xmlns:inkscape="http://www.inkscape.org/namespaces/inkscape"
   version="1.1"
   x="0px"
   y="0px"
   viewBox="0 0 512 512"
   style="enable-background:new 0 0 512 512;"
   xml:space="preserve"
   id="svg8"
   sodipodi:docname="heart-outline.svg"
   inkscape:version="1.0 (4035a4fb49, 2020-05-01)"><metadata
   id="metadata14"><rdf:RDF><cc:Work
       rdf:about=""><dc:format>image/svg+xml</dc:format><dc:type
         rdf:resource="http://purl.org/dc/dcmitype/StillImage" /></cc:Work></rdf:RDF></metadata><defs
   id="defs12" /><sodipodi:namedview
   inkscape:document-rotation="0"
   pagecolor="#ffffff"
   bordercolor="#666666"
   borderopacity="1"
   objecttolerance="10"
   gridtolerance="10"
   guidetolerance="10"
   inkscape:pageopacity="0"
   inkscape:pageshadow="2"
   inkscape:window-width="1860"
   inkscape:window-height="1051"
   id="namedview10"
   showgrid="false"
   inkscape:zoom="3.4692426"
   inkscape:cx="245.60502"
   inkscape:cy="252.03604"
   inkscape:window-x="60"
   inkscape:window-y="0"
   inkscape:window-maximized="1"
   inkscape:current-layer="svg8" />
<g
   style="fill:#b3b3b3"
   id="g6">
	<g
   style="fill:#b3b3b3"
   id="g4">
		<path
   style="fill:#b3b3b3"
   d="M474.644,74.27C449.391,45.616,414.358,29.836,376,29.836c-53.948,0-88.103,32.22-107.255,59.25    c-4.969,7.014-9.196,14.047-12.745,20.665c-3.549-6.618-7.775-13.651-12.745-20.665c-19.152-27.03-53.307-59.25-107.255-59.25    c-38.358,0-73.391,15.781-98.645,44.435C13.267,101.605,0,138.213,0,177.351c0,42.603,16.633,82.228,52.345,124.7    c31.917,37.96,77.834,77.088,131.005,122.397c19.813,16.884,40.302,34.344,62.115,53.429l0.655,0.574    c2.828,2.476,6.354,3.713,9.88,3.713s7.052-1.238,9.88-3.713l0.655-0.574c21.813-19.085,42.302-36.544,62.118-53.431    c53.168-45.306,99.085-84.434,131.002-122.395C495.367,259.578,512,219.954,512,177.351    C512,138.213,498.733,101.605,474.644,74.27z M309.193,401.614c-17.08,14.554-34.658,29.533-53.193,45.646    c-18.534-16.111-36.113-31.091-53.196-45.648C98.745,312.939,30,254.358,30,177.351c0-31.83,10.605-61.394,29.862-83.245    C79.34,72.007,106.379,59.836,136,59.836c41.129,0,67.716,25.338,82.776,46.594c13.509,19.064,20.558,38.282,22.962,45.659    c2.011,6.175,7.768,10.354,14.262,10.354c6.494,0,12.251-4.179,14.262-10.354c2.404-7.377,9.453-26.595,22.962-45.66    c15.06-21.255,41.647-46.593,82.776-46.593c29.621,0,56.66,12.171,76.137,34.27C471.395,115.957,482,145.521,482,177.351    C482,254.358,413.255,312.939,309.193,401.614z"
   id="path2" />
	</g>
</g>
</svg>
