<?xml version="1.0" encoding="UTF-8" standalone="no"?>
<svg
   xmlns:dc="http://purl.org/dc/elements/1.1/"
   xmlns:cc="http://creativecommons.org/ns#"
   xmlns:rdf="http://www.w3.org/1999/02/22-rdf-syntax-ns#"
   xmlns:svg="http://www.w3.org/2000/svg"
   xmlns="http://www.w3.org/2000/svg"
   xmlns:sodipodi="http://sodipodi.sourceforge.net/DTD/sodipodi-0.dtd"
   xmlns:inkscape="http://www.inkscape.org/namespaces/inkscape"
   inkscape:version="1.0 (4035a4fb49, 2020-05-01)"
   sodipodi:docname="heart-fill.svg"
   xml:space="preserve"
   style="enable-background:new 0 0 512 512;"
   viewBox="0 0 512 512"
   y="0px"
   x="0px"
   id="Capa_1"
   version="1.1"><metadata
   id="metadata43"><rdf:RDF><cc:Work
       rdf:about=""><dc:format>image/svg+xml</dc:format><dc:type
         rdf:resource="http://purl.org/dc/dcmitype/StillImage" /></cc:Work></rdf:RDF></metadata><defs
   id="defs41" /><sodipodi:namedview
   inkscape:current-layer="Capa_1"
   inkscape:window-maximized="0"
   inkscape:window-y="0"
   inkscape:window-x="60"
   inkscape:cy="256"
   inkscape:cx="256"
   inkscape:zoom="1.2265625"
   showgrid="false"
   id="namedview39"
   inkscape:window-height="480"
   inkscape:window-width="703"
   inkscape:pageshadow="2"
   inkscape:pageopacity="0"
   guidetolerance="10"
   gridtolerance="10"
   objecttolerance="10"
   borderopacity="1"
   bordercolor="#666666"
   pagecolor="#ffffff" />
<g
   style="fill:#ffdd55"
   id="g6">
	<g
   style="fill:#ffdd55"
   id="g4">
		<path
   style="fill:#ffdd55"
   id="path2"
   d="M376,30c-27.783,0-53.255,8.804-75.707,26.168c-21.525,16.647-35.856,37.85-44.293,53.268    c-8.437-15.419-22.768-36.621-44.293-53.268C189.255,38.804,163.783,30,136,30C58.468,30,0,93.417,0,177.514    c0,90.854,72.943,153.015,183.369,247.118c18.752,15.981,40.007,34.095,62.099,53.414C248.38,480.596,252.12,482,256,482    s7.62-1.404,10.532-3.953c22.094-19.322,43.348-37.435,62.111-53.425C439.057,330.529,512,268.368,512,177.514    C512,93.417,453.532,30,376,30z" />
	</g>
</g>
<g
   id="g8">
</g>
<g
   id="g10">
</g>
<g
   id="g12">
</g>
<g
   id="g14">
</g>
<g
   id="g16">
</g>
<g
   id="g18">
</g>
<g
   id="g20">
</g>
<g
   id="g22">
</g>
<g
   id="g24">
</g>
<g
   id="g26">
</g>
<g
   id="g28">
</g>
<g
   id="g30">
</g>
<g
   id="g32">
</g>
<g
   id="g34">
</g>
<g
   id="g36">
</g>
</svg>
